<?xml version="1.0" encoding="utf-8"?>
<!-- Generator: Adobe Illustrator 19.0.0, SVG Export Plug-In . SVG Version: 6.00 Build 0)  -->
<svg version="1.1" id="Layer_1" xmlns="http://www.w3.org/2000/svg" xmlns:xlink="http://www.w3.org/1999/xlink" x="0px" y="0px"
	 viewBox="0 0 300 72" style="enable-background:new 0 0 300 72;" xml:space="preserve">
<style type="text/css">
	.st0{fill-rule:evenodd;clip-rule:evenodd;fill:#FFFFFF;}
	.st1{fill-rule:evenodd;clip-rule:evenodd;fill:#FFCA09;}
	.st2{fill:#FFCA09;}
</style>
<g id="XMLID_24_">
	<path id="XMLID_67_" class="st0" d="M93,43.6c0-0.9-0.3-1.8-1-2.4c-0.7-0.7-1.5-1-2.5-1c-0.9,0-1.8,0.3-2.4,1c-0.7,0.7-1,1.5-1,2.4
		c0,0.9,0.4,1.8,1,2.4c0.7,0.6,1.5,1,2.4,1c1,0,1.8-0.4,2.5-1C92.6,45.4,93,44.6,93,43.6"/>
	<polyline id="XMLID_66_" class="st0" points="84.5,37 94.2,37 94.2,26.3 72.1,26.3 72.1,60.8 94.2,60.8 94.2,50.2 84.5,50.2 
		84.5,37 	"/>
	<path id="XMLID_65_" class="st0" d="M112.7,30.4c-1.5-1.9-3.2-3.3-5-4.2c-3.1,1.7-5.6,4.3-7.5,8c-1.9,3.7-2.9,7.9-2.9,12.6
		c0,2.6,0.3,5.2,1,7.6c0.7,2.4,1.6,4.5,2.8,6.5h8.7v-6.4l6.8,6.4l6.5-6.4v6.4l8.6-0.1c1.1-1.9,2.1-4,2.7-6.4c0.7-2.4,1-5,1-7.6
		c0-4.7-1-8.9-2.9-12.6c-2-3.7-4.5-6.3-7.5-8c-1.9,1-3.6,2.4-5.1,4.2c-1.4,1.8-2.6,3.9-3.5,6.2C115.4,34.3,114.2,32.2,112.7,30.4"/>
	<path id="XMLID_62_" class="st0" d="M150.1,26.4h-11.5v34.4H151V56c4.1-0.3,7.5-1.8,10.4-4.6c2.8-2.8,4.3-6.2,4.3-10.1
		c0-4.1-1.6-7.6-4.5-10.5C158.1,27.8,154.4,26.4,150.1,26.4 M153.9,47.6c0,1-0.3,1.9-0.8,2.6c-0.6,0.8-1.2,1.2-2,1.3l-0.1-7.7
		c0.8,0.1,1.5,0.5,2,1.2C153.6,45.7,153.9,46.6,153.9,47.6z"/>
	<path id="XMLID_59_" class="st0" d="M190.5,26.2c-6.1,0-11.3,2.2-15.7,6.5c-4.3,4.3-6.5,9.5-6.5,15.6c0,2.4,0.3,4.5,1,6.6
		c0.7,2.1,1.7,4.1,2.9,5.9l8.1-0.1c-0.1-0.5-0.3-1-0.4-1.5c-0.2-0.5-0.3-1-0.4-1.5c-0.1-0.6-0.3-1.3-0.4-1.9
		c-0.1-0.7-0.1-1.4-0.1-2.1h4.3v7.1h12.4v-34c-0.9-0.2-1.8-0.4-2.6-0.4C192.3,26.2,191.4,26.2,190.5,26.2 M183.4,50.2h-4.5
		c0.4-1.5,0.9-3,1.7-4.3c0.8-1.3,1.8-2.5,2.9-3.5V50.2z"/>
	<path id="XMLID_56_" class="st0" d="M227.3,43.7c0-4.7-1.7-8.8-5.1-12.2c-3.5-3.4-7.6-5.1-12.5-5.1h-11.2v34.4l11.2-0.1
		c4.9,0,9-1.6,12.5-5C225.6,52.4,227.3,48.4,227.3,43.7 M210.3,51.7c0,0.8-0.4,1.5-1.2,2.2c-0.8,0.6-1.8,1-3,1.2v-6.8
		c1.2,0.2,2.3,0.6,3,1.2C209.9,50.2,210.3,50.9,210.3,51.7z"/>
	<path id="XMLID_53_" class="st0" d="M257.6,26.8c-0.8-0.2-1.7-0.4-2.6-0.4c-0.8-0.2-1.8-0.2-2.6-0.2c-6.1,0-11.3,2.2-15.7,6.5
		c-4.3,4.3-6.5,9.5-6.5,15.6c0,2.4,0.4,4.5,1,6.6c0.7,2.1,1.6,4.1,2.8,5.9l8.1-0.1c-0.1-0.5-0.2-1-0.4-1.5c-0.1-0.5-0.3-1-0.4-1.5
		c-0.1-0.6-0.2-1.3-0.3-1.9c-0.1-0.7-0.2-1.4-0.2-2.1h4.3v7.1h12.4V26.8 M240.6,50.2c0.4-1.5,0.9-3,1.7-4.3c0.8-1.3,1.8-2.5,2.8-3.5
		v7.8H240.6z"/>
	<polyline id="XMLID_52_" class="st0" points="267.2,26 262.4,24.2 259.3,32.6 264.1,34.3 267.2,26 	"/>
	<path id="XMLID_51_" class="st0" d="M283.1,26.5c-4.3-0.3-8.3,1-11.6,3.8c-3.5,2.9-5.3,6.5-5.6,10.9l-0.3,4.2
		c-0.1,0.9-0.5,1.7-1.2,2.3c-0.7,0.6-1.5,0.9-2.4,0.9l-1.1,12.6c4.4,0.4,8.3-0.9,11.7-3.8c3.4-2.8,5.2-6.5,5.5-10.8l0.4-4.2
		c0.1-0.9,0.5-1.7,1.2-2.3c0.7-0.7,1.4-0.9,2.3-0.9L283.1,26.5"/>
	<path id="XMLID_50_" class="st1" d="M61.3,16.9c-0.2,0.4-0.3,0.9-0.6,1.5c-0.3,0.5-0.5,1.1-0.8,1.8c-0.3,0.8-0.5,1.6-0.7,2.4
		c-0.4,2.4,0.4,5,2.5,7.7c-1.5-2.7-2.1-5.3-1.6-7.8c0.1-0.8,0.3-1.6,0.6-2.4c0.3-0.7,0.5-1.2,0.8-1.8c0.3-0.6,0.5-1.1,0.6-1.5
		c0.8-2.9,0.1-5.8-2.2-8.8C61.6,11,62.1,14,61.3,16.9"/>
	<path id="XMLID_49_" class="st2" d="M61.3,30.6c-2.1-2.8-3-5.5-2.6-8.1c0.2-1,0.4-1.7,0.7-2.5c0.2-0.6,0.5-1.2,0.8-1.8
		c0.2-0.4,0.4-0.8,0.5-1.2c0-0.1,0.1-0.2,0.1-0.3c0.7-2.8,0.3-5.6-1.3-8.5l0.9-0.6c2.3,3.1,3.1,6.2,2.3,9.3
		c-0.1,0.4-0.3,0.9-0.6,1.6l0,0.1c-0.3,0.5-0.5,1-0.8,1.7c-0.3,0.8-0.5,1.5-0.6,2.3c-0.4,2.4,0.1,4.9,1.6,7.5L61.3,30.6"/>
	<path id="XMLID_48_" class="st1" d="M49.6,16.3c-0.3-0.7-0.5-1.3-0.8-1.8c-0.3-0.6-0.5-1.1-0.6-1.5c-0.8-3-0.3-5.9,1.4-8.9
		c-2.3,2.9-3,5.9-2.2,8.7c0.1,0.4,0.3,0.9,0.6,1.6c0.3,0.5,0.5,1,0.8,1.7c0.3,0.8,0.5,1.6,0.7,2.4c0.4,2.6-0.2,5.2-1.6,7.8
		c2-2.7,2.8-5.2,2.5-7.7C50.1,17.9,49.9,17.1,49.6,16.3"/>
	<path id="XMLID_47_" class="st2" d="M48.2,26.7l-0.9-0.6c1.4-2.5,1.9-5,1.6-7.5c-0.2-0.9-0.4-1.6-0.6-2.3c-0.3-0.7-0.5-1.2-0.8-1.7
		c-0.3-0.7-0.6-1.2-0.7-1.7c-0.8-3.1-0.1-6.2,2.3-9.2L50,4.4c-1.6,2.8-2.1,5.7-1.4,8.5l0.1,0.2c0.1,0.3,0.3,0.7,0.5,1.2
		c0.2,0.4,0.5,1,0.8,1.8c0.3,0.7,0.5,1.5,0.7,2.4C51.2,21.2,50.3,24,48.2,26.7"/>
	<path id="XMLID_46_" class="st1" d="M36.3,0.7c1.7,3,2.2,5.9,1.4,8.9c-0.1,0.4-0.3,0.9-0.6,1.5c-0.3,0.5-0.6,1.1-0.8,1.8
		c-0.4,0.8-0.6,1.6-0.7,2.3c-0.4,2.5,0.4,5.1,2.4,7.7c-1.5-2.6-2-5.2-1.6-7.8c0.2-0.8,0.4-1.6,0.7-2.4c0.3-0.7,0.5-1.2,0.8-1.7
		c0.3-0.6,0.5-1.1,0.6-1.6C39.2,6.6,38.5,3.6,36.3,0.7"/>
	<path id="XMLID_45_" class="st2" d="M37.6,23.2c-2.2-2.8-3-5.5-2.6-8.1c0.1-0.9,0.3-1.7,0.7-2.4c0.2-0.7,0.5-1.4,0.8-1.8l0.1-0.2
		c0.2-0.5,0.4-0.9,0.4-1.2c0.8-2.8,0.4-5.7-1.3-8.5l0.9-0.6c2.3,3,3.1,6.1,2.3,9.2l0,0.1c0,0.1-0.1,0.2-0.1,0.3
		c-0.1,0.4-0.3,0.8-0.5,1.3c-0.3,0.5-0.5,1-0.8,1.7c-0.3,0.6-0.5,1.4-0.7,2.3c-0.4,2.5,0.1,5,1.6,7.4L37.6,23.2"/>
	<path id="XMLID_44_" class="st1" d="M15.1,20.1c0.3-0.7,0.5-1.2,0.8-1.8c0.3-0.6,0.5-1.1,0.6-1.5c0.8-2.9,0-5.8-2.2-8.8
		c1.7,3,2.1,5.9,1.4,8.9c-0.2,0.4-0.3,0.9-0.6,1.5c-0.3,0.5-0.5,1.1-0.8,1.8c-0.3,0.8-0.5,1.6-0.7,2.4c-0.4,2.4,0.4,5,2.4,7.7
		c-1.5-2.7-2-5.3-1.6-7.8C14.5,21.7,14.7,20.9,15.1,20.1"/>
	<path id="XMLID_43_" class="st2" d="M15.6,30.6c-2.1-2.8-2.9-5.5-2.6-8.1c0.2-1,0.4-1.7,0.7-2.5c0.2-0.6,0.5-1.2,0.8-1.8
		c0.2-0.4,0.4-0.8,0.5-1.2c0-0.1,0.1-0.2,0.1-0.3c0.7-2.8,0.3-5.6-1.3-8.5l0.9-0.6c2.3,3.1,3.1,6.2,2.3,9.3
		c-0.1,0.4-0.3,0.9-0.6,1.6l0,0.1c-0.3,0.5-0.5,1-0.8,1.7c-0.3,0.8-0.5,1.5-0.6,2.3c-0.4,2.4,0.1,4.9,1.5,7.5L15.6,30.6"/>
	<path id="XMLID_42_" class="st1" d="M25.8,14.5c-0.3-0.6-0.5-1.1-0.6-1.5c-0.8-3-0.4-5.9,1.4-8.9c-2.2,2.9-3,5.9-2.2,8.7
		c0,0.4,0.3,0.9,0.6,1.6c0.3,0.5,0.5,1,0.8,1.7c0.3,0.8,0.5,1.6,0.7,2.4c0.4,2.6-0.2,5.2-1.6,7.8c2-2.7,2.9-5.2,2.4-7.7
		c-0.1-0.8-0.3-1.6-0.6-2.3C26.4,15.6,26.1,15,25.8,14.5"/>
	<path id="XMLID_41_" class="st2" d="M25.2,26.7l-0.9-0.6c1.4-2.5,1.9-5,1.6-7.5c-0.2-0.9-0.4-1.6-0.6-2.3c-0.3-0.7-0.5-1.2-0.8-1.7
		l0-0.1c-0.1-0.1-0.1-0.3-0.2-0.4c-0.2-0.5-0.4-0.9-0.4-1.3c-0.8-3,0-6.1,2.3-9.2L27,4.4c-1.6,2.8-2.1,5.7-1.3,8.5
		c0.1,0.3,0.2,0.8,0.5,1.4c0.3,0.5,0.6,1.1,0.9,1.8c0.3,0.8,0.5,1.6,0.7,2.5C28.2,21.2,27.4,23.9,25.2,26.7"/>
	<path id="XMLID_38_" class="st1" d="M40.8,27.4c-2.5-0.5-2.7-0.5-5.5,0.1c-14.1,4.4-23.4,9.7-27.7,15.9H7.5c0,0.1,0,0.2,0,0.2
		s0,0.1,0,0.1c-0.3,6.2,1.4,12.1,5,17.6c16.8,4.6,32.9,4.2,48.5-1c0-0.1,0.1-0.1,0.1-0.1c3.6-4.9,6-10.1,7.2-15.5
		c0.2-1.1,0.4-2.3,0.6-3.5c-0.1-0.2-0.2-0.4-0.3-0.5c-1.1-1.3-2.3-2.5-3.8-3.6C60.4,33.7,52.4,30.4,40.8,27.4
		C40.8,27.4,42.8,28.1,40.8,27.4 M41.3,28.1c3.8,0.7,18.1,6,23.4,9.9c1.1,0.9,2.2,1.8,3.3,2.8c-1.2,0.5-2.2,1-3.3,1.5
		c-9.1,3.7-18.9,6.1-29.3,7c1.2,0,2.3,0,3.5-0.1c8.6-0.4,17.2-2.5,25.8-6.2c1-0.5,2.1-1,3.2-1.5c-0.2,1-0.4,1.9-0.6,2.9
		c-1.4,5.6-3.9,10.9-7.6,15.8c-17.7,4-33.1,4-46.2-0.1c-2.3-3.5-3.4-8.1-3.6-13.8c8.8,3.5,17.3,4.5,25.3,3v-0.1c-9-0.1-18-2-27-5.7
		c-0.1-0.1-0.1-0.1-0.2-0.1c5.1-5.9,14-11,26.9-15.3C34.9,28.3,37.5,27.4,41.3,28.1z"/>
	<path id="XMLID_32_" class="st2" d="M35.4,65c-7.5,0-15.3-1.1-23.1-3.2l-0.2-0.1L12,61.5C8.3,56,6.6,50,7,43.6v-0.8h0.3
		c4.5-6.2,13.6-11.4,27.8-15.9l0.1,0c1.5-0.3,2.3-0.5,3.1-0.5c0.7,0,1.5,0.1,2.7,0.4l0.1,0c11.5,3,19.6,6.3,24.1,9.7
		c1.4,1,2.6,2.2,3.9,3.7l0,0c0.1,0.1,0.1,0.2,0.2,0.3c0,0.1,0.1,0.2,0.1,0.2l0.1,0.2l0,0.2c-0.2,1.2-0.4,2.4-0.6,3.5
		c-1.2,5.5-3.7,10.8-7.3,15.7l0,0v0.1l-0.1,0l0,0.1h-0.1l-0.1,0C52.8,63.5,44.1,65,35.4,65 M12.8,60.8c7.6,2.1,15.3,3.1,22.7,3.1
		c4,0,8-0.3,12-0.9c-4.3,0.5-8.3,0.8-12.3,0.8c-7.8,0-15.1-1-21.7-3.1l-0.2-0.1l-0.1-0.2c-2.3-3.5-3.5-8.1-3.7-14l0-0.8l0.8,0.3
		c6,2.4,12,3.6,17.6,3.6c0.5,0,1,0,1.5,0c-7-0.7-14.1-2.5-21.2-5.4l0,0C7.8,50,9.4,55.6,12.8,60.8z M13.9,59.7c6.5,2,13.6,3,21.2,3
		c7.5,0,15.7-1,24.3-2.9c3.6-4.8,6-9.9,7.4-15.5c0.1-0.6,0.3-1.2,0.4-1.8c-0.8,0.4-1.6,0.7-2.3,1.1c-8.7,3.7-17.4,5.8-26,6.2
		c-1.2,0.1-2.3,0.1-3.4,0.1l-0.2,0c-2.5,0.5-5.1,0.7-7.6,0.7c-5.6,0-11.4-1.1-17.3-3.4C10.7,52.5,11.9,56.6,13.9,59.7z M9,43.4
		c8.8,3.5,17.6,5.4,26.3,5.4l0.2,0c10.2-0.9,20-3.3,29.1-7c0.4-0.2,0.9-0.4,1.3-0.6c0.4-0.2,0.8-0.4,1.2-0.5
		c-0.9-0.7-1.8-1.5-2.7-2.2c-5.3-3.9-19.5-9.2-23.2-9.8c-0.9-0.2-1.9-0.3-2.8-0.3c-1.7,0-2.9,0.3-3.3,0.4c-0.1,0-0.1,0-0.1,0
		C22.8,32.9,14,37.8,9,43.4z M56.3,32.9c1.7,0.7,3.3,1.5,4.7,2.2C59.6,34.4,58,33.7,56.3,32.9z"/>
	<path id="XMLID_31_" class="st1" d="M197.6,68.9c-3.8-0.3-8.4-0.9-13.8-1.8c-4.5-0.8-9.9-1.7-16-2.4c-7.3-0.9-14.5-1.6-21.7-2
		c-22.5-1.2-45.9,1.2-70.2,7.4c23.8-4.5,47.5-6.1,71.2-4.9c7.3,0.4,14.6,1,21.9,2c6.1,0.8,11.4,1.6,15.9,2.4
		c5.5,0.9,10.1,1.4,13.9,1.8c26.4,2.4,53.1,0.2,80-6.6C251.7,69.9,224.7,71.3,197.6,68.9"/>
	<path id="XMLID_28_" class="st2" d="M287.1,34.4v-4.4h2c0.4,0,0.7,0,0.9,0.1c0.2,0.1,0.4,0.2,0.5,0.4c0.1,0.2,0.2,0.4,0.2,0.7
		c0,0.3-0.1,0.6-0.3,0.8c-0.2,0.2-0.5,0.4-0.9,0.4c0.2,0.1,0.3,0.1,0.4,0.2c0.2,0.2,0.3,0.3,0.5,0.6l0.8,1.2h-0.7l-0.6-0.9
		c-0.2-0.3-0.3-0.5-0.4-0.6c-0.1-0.1-0.2-0.2-0.3-0.3c-0.1-0.1-0.2-0.1-0.3-0.1c-0.1,0-0.2,0-0.3,0h-0.7v2H287.1 M287.7,31.9h1.3
		c0.3,0,0.5,0,0.6-0.1c0.2-0.1,0.3-0.1,0.3-0.3c0.1-0.1,0.1-0.3,0.1-0.4c0-0.2-0.1-0.4-0.2-0.5c-0.2-0.1-0.4-0.2-0.7-0.2h-1.4V31.9z
		"/>
	<path id="XMLID_25_" class="st2" d="M288.9,36.4c-2.3,0-4.2-1.9-4.2-4.2c0-2.3,1.9-4.2,4.2-4.2c2.3,0,4.2,1.9,4.2,4.2
		C293.1,34.5,291.2,36.4,288.9,36.4 M288.9,28.3c-2.2,0-3.9,1.7-3.9,3.9c0,2.2,1.7,3.9,3.9,3.9c2.1,0,3.9-1.7,3.9-3.9
		C292.8,30.1,291.1,28.3,288.9,28.3z"/>
</g>
</svg>
